<mxfile host="app.diagrams.net" modified="2023-10-16T18:07:20.133Z" agent="Mozilla/5.0 (Windows NT 10.0; Win64; x64) AppleWebKit/537.36 (KHTML, like Gecko) Chrome/117.0.0.0 Safari/537.36" version="22.0.4" etag="Sgr2cJz35Q8ZLjPnqI0U" type="github">
  <diagram name="PÃ¡gina-1" id="Kho9o5Ppwyqh88K3mNmO">
    <mxGraphModel>
      <root>
        <mxCell id="0" />
        <mxCell id="1" parent="0" />
      </root>
    </mxGraphModel>
  </diagram>
</mxfile>
